<svg aria-hidden="true" style="position: absolute; width: 0; height: 0; overflow: hidden;" version="1.1" xmlns="http://www.w3.org/2000/svg" xmlns:xlink="http://www.w3.org/1999/xlink">
<defs>
<symbol id="icon-icon-input" viewBox="0 0 34 32">
<path d="M31.854 9.489l-3.407-2.060v-6.997c0-0.221-0.179-0.4-0.4-0.4h-5.050c-0.221 0-0.4 0.179-0.4 0.4v3.46l-6.342-3.834c-0.040-0.024-0.085-0.040-0.13-0.047-0.102-0.024-0.209-0.007-0.299 0.047l-15.587 9.431c-0.12 0.072-0.193 0.202-0.193 0.342v3.3c0 0.143 0.077 0.276 0.201 0.347s0.277 0.071 0.401-0.002l2.347-1.372v16.12h-1.117c-0.221 0-0.4 0.179-0.4 0.4v2.976c0 0.221 0.179 0.4 0.4 0.4h28.335c0.221 0 0.4-0.179 0.4-0.4v-2.976c0-0.221-0.179-0.4-0.4-0.4h-1.117v-16.119l2.348 1.371c0.062 0.036 0.132 0.055 0.202 0.055 0.069 0 0.137-0.018 0.199-0.053 0.125-0.071 0.201-0.204 0.201-0.347v-3.3c0-0.14-0.073-0.27-0.193-0.342zM23.397 0.832h4.25v6.113l-4.25-2.57v-3.544zM29.814 31.2h-27.535v-2.176h27.535v2.176zM19.647 28.224h-7.2v-12.493h7.2v12.493zM28.298 28.224h-7.851v-12.893c0-0.221-0.179-0.4-0.4-0.4h-8c-0.221 0-0.4 0.179-0.4 0.4v12.893h-7.851v-16.588l12.245-7.159 12.257 7.161v16.587zM31.247 12.434l-15.004-8.766c-0.062-0.036-0.132-0.055-0.202-0.055s-0.139 0.018-0.202 0.055l-14.992 8.766v-2.377l15.194-9.193 15.206 9.193v2.378z"></path>
</symbol>
<symbol id="icon-airbnb" viewBox="0 0 102 32">
<path fill="#718087" style="fill: var(--color1, #718087)" d="M53.806 7.947c0 1.14-0.913 2.058-2.046 2.058s-2.045-0.918-2.045-2.058 0.881-2.058 2.045-2.058c1.165 0.032 2.046 0.95 2.046 2.058zM45.371 12.095v0.507c0 0-0.975-1.267-3.052-1.267-3.43 0-6.106 2.628-6.106 6.269 0 3.609 2.644 6.268 6.106 6.268 2.109 0 3.052-1.298 3.052-1.298v0.538c0 0.253 0.189 0.443 0.441 0.443h2.549v-11.904h-2.549c-0.252 0.001-0.441 0.223-0.441 0.445zM45.371 19.724c-0.472 0.697-1.416 1.298-2.549 1.298-2.014 0-3.556-1.266-3.556-3.419s1.542-3.419 3.556-3.419c1.102 0 2.109 0.633 2.549 1.298v4.242zM50.249 11.651h3.021v11.904h-3.021v-11.904zM95.379 11.334c-2.077 0-3.053 1.267-3.053 1.267v-6.68h-3.021v17.634h2.549c0.252 0 0.44-0.222 0.44-0.444v-0.538c0 0 0.976 1.298 3.053 1.298 3.431 0 6.105-2.659 6.105-6.268s-2.675-6.27-6.073-6.27zM94.876 20.99c-1.165 0-2.077-0.601-2.549-1.298v-4.242c0.472-0.633 1.479-1.298 2.549-1.298 2.014 0 3.556 1.266 3.556 3.419s-1.542 3.419-3.556 3.419zM87.732 16.495v7.092h-3.022v-6.744c0-1.963-0.629-2.755-2.328-2.755-0.912 0-1.857 0.475-2.456 1.172v8.295h-3.020v-11.904h2.391c0.252 0 0.441 0.222 0.441 0.443v0.507c0.881-0.918 2.046-1.267 3.21-1.267 1.322 0 2.424 0.38 3.305 1.14 1.070 0.887 1.479 2.026 1.479 4.021zM69.573 11.334c-2.077 0-3.052 1.267-3.052 1.267v-6.68h-3.021v17.634h2.549c0.252 0 0.441-0.222 0.441-0.444v-0.538c0 0 0.976 1.298 3.053 1.298 3.431 0 6.106-2.659 6.106-6.268 0.031-3.61-2.643-6.27-6.074-6.27zM69.069 20.99c-1.164 0-2.077-0.601-2.549-1.298v-4.242c0.472-0.633 1.479-1.298 2.549-1.298 2.015 0 3.556 1.266 3.556 3.419s-1.542 3.419-3.556 3.419zM60.887 11.334c0.912 0 1.385 0.159 1.385 0.159v2.817c0 0-2.518-0.855-4.091 0.95v8.326h-3.022v-11.935h2.549c0.252 0 0.44 0.222 0.44 0.443v0.507c0.567-0.665 1.795-1.267 2.738-1.267zM29.51 22.478c-0.157-0.38-0.315-0.791-0.472-1.14-0.252-0.57-0.504-1.108-0.724-1.615l-0.032-0.032c-2.172-4.749-4.5-9.561-6.955-14.309l-0.094-0.19c-0.258-0.493-0.51-0.989-0.755-1.488-0.315-0.57-0.629-1.171-1.133-1.741-1.007-1.266-2.455-1.963-3.997-1.963-1.574 0-2.99 0.697-4.028 1.9-0.472 0.57-0.819 1.171-1.133 1.741-0.246 0.499-0.497 0.995-0.755 1.488l-0.095 0.19c-2.423 4.748-4.784 9.561-6.955 14.309l-0.032 0.063c-0.22 0.507-0.472 1.045-0.724 1.615-0.157 0.349-0.314 0.728-0.472 1.14-0.409 1.171-0.535 2.279-0.378 3.419 0.346 2.375 1.919 4.368 4.091 5.255 0.818 0.349 1.668 0.507 2.549 0.507 0.252 0 0.566-0.032 0.818-0.064 1.039-0.126 2.109-0.474 3.147-1.076 1.29-0.728 2.518-1.773 3.902-3.292 1.385 1.52 2.643 2.564 3.902 3.292 1.039 0.601 2.109 0.949 3.147 1.076 0.252 0.032 0.567 0.064 0.819 0.064 0.881 0 1.762-0.158 2.549-0.507 2.203-0.887 3.745-2.912 4.091-5.255 0.25-1.108 0.124-2.215-0.285-3.387zM15.317 24.125c-1.7-2.153-2.801-4.179-3.179-5.888-0.157-0.728-0.189-1.362-0.094-1.931 0.062-0.507 0.252-0.95 0.504-1.33 0.598-0.854 1.605-1.393 2.77-1.393s2.203 0.507 2.77 1.393c0.252 0.38 0.44 0.824 0.504 1.33 0.094 0.57 0.063 1.235-0.095 1.931-0.379 1.677-1.48 3.704-3.18 5.888zM27.873 25.613c-0.22 1.646-1.322 3.071-2.864 3.705-0.755 0.316-1.574 0.412-2.392 0.316-0.787-0.095-1.574-0.349-2.392-0.823-1.133-0.634-2.266-1.615-3.588-3.071 2.077-2.564 3.336-4.907 3.808-6.996 0.22-0.982 0.252-1.868 0.157-2.692-0.125-0.791-0.409-1.52-0.85-2.153-0.976-1.425-2.613-2.248-4.438-2.248s-3.462 0.855-4.437 2.248c-0.44 0.633-0.724 1.362-0.85 2.153-0.126 0.824-0.095 1.741 0.157 2.692 0.472 2.089 1.762 4.464 3.808 7.028-1.29 1.456-2.455 2.438-3.588 3.071-0.818 0.475-1.605 0.728-2.391 0.823-0.849 0.095-1.668-0.032-2.392-0.316-1.542-0.633-2.643-2.058-2.864-3.705-0.094-0.791-0.032-1.583 0.283-2.469 0.094-0.317 0.252-0.633 0.409-1.013 0.22-0.507 0.472-1.045 0.724-1.583l0.032-0.063c2.171-4.718 4.5-9.53 6.923-14.215l0.094-0.19c0.252-0.474 0.504-0.981 0.755-1.456 0.252-0.507 0.535-0.982 0.881-1.393 0.661-0.759 1.542-1.171 2.518-1.171s1.857 0.412 2.518 1.171c0.346 0.413 0.629 0.888 0.881 1.394 0.252 0.475 0.504 0.982 0.755 1.456l0.095 0.19c2.386 4.705 4.684 9.454 6.892 14.246v0.032c0.252 0.507 0.472 1.077 0.724 1.584 0.157 0.379 0.315 0.696 0.409 1.012 0.251 0.822 0.346 1.614 0.22 2.437z"></path>
</symbol>
<symbol id="icon-buzz" viewBox="0 0 95 32">
<path fill="#718087" style="fill: var(--color1, #718087)" d="M19.575 15.793c1.574 0.126 2.895 0.759 4.028 1.96s1.699 2.845 1.699 4.932c0 2.529-0.818 4.616-2.518 6.133s-4.091 2.276-7.301 2.276h-15.484v-29.971h15.421c2.707 0 4.91 0.759 6.546 2.213 1.637 1.518 2.455 3.478 2.455 5.944 0 1.897-0.504 3.351-1.574 4.489s-2.14 1.707-3.336 1.834l0.063 0.19zM7.364 13.517h6.42c1.070 0 1.951-0.316 2.644-0.948 0.629-0.632 1.007-1.391 1.007-2.466 0-0.948-0.315-1.644-0.944-2.213s-1.448-0.822-2.392-0.822h-6.735v6.45zM14.162 25.151c1.133 0 2.077-0.316 2.707-0.885s0.944-1.391 0.944-2.466c0-1.012-0.315-1.77-1.007-2.339-0.629-0.569-1.511-0.885-2.518-0.885h-6.924v6.576h6.798zM50.795 31.095h-7.113v-2.15c-1.762 1.897-4.091 2.845-6.861 2.845-2.644 0-4.721-0.885-6.294-2.592s-2.392-3.983-2.392-6.766v-13.784h7.050v12.267c0 1.328 0.378 2.403 1.070 3.225s1.637 1.201 2.769 1.201c1.448 0 2.581-0.506 3.399-1.517s1.196-2.593 1.196-4.742v-10.433h7.113l0.063 22.447zM72.762 31.095h-18.883v-1.328l8.875-15.428h-8.623v-5.691h18.505v1.328l-8.875 15.428h8.938v5.691h0.063zM94.667 31.095h-18.82v-1.328l8.812-15.428h-8.623v-5.691h18.505v1.328l-8.875 15.428h8.938l0.063 5.691z"></path>
</symbol>
<symbol id="icon-chase" viewBox="0 0 165 32">
<path fill="#718087" style="fill: var(--color1, #718087)" d="M55.443 0.492v12.102h-16.861v-12.102l-6.141-0.005v30.515h6.141v-13.109h16.861v13.109h6.151v-30.51h-6.151z"></path>
<path fill="#718087" style="fill: var(--color1, #718087)" d="M137.138 0.493v30.502h26.942l-3.412-5.37h-17.371v-7.732h16.821v-5.172h-16.821v-6.984h17.342l3.343-5.244h-26.843z"></path>
<path fill="#718087" style="fill: var(--color1, #718087)" d="M9.614 0.485c-6.388 0-9.614 3.883-9.614 9.534v11.391c0 6.539 4.158 9.592 9.582 9.592l19.267-0.002-3.572-5.578h-14.505c-3.081 0-4.424-1.114-4.424-4.563v-10.334c0-3.334 1.13-4.634 4.506-4.634h14.574l3.43-5.406h-19.244z"></path>
<path fill="#718087" style="fill: var(--color1, #718087)" d="M110.187 0.477c-3.689 0-7.471 2.217-7.471 7.921v1.466c0 5.946 3.638 8.214 7.278 8.23h12.777c1.327 0 2.405 0.221 2.405 2.463l-0.002 2.591c-0.034 2.015-1.039 2.476-2.449 2.476h-16.809l-3.443 5.37h20.648c4.979 0 8.359-2.477 8.359-8.199v-2.103c0-5.532-3.141-8.146-8.010-8.146h-12.2c-1.352 0-2.295-0.369-2.295-2.372v-2.11c0-1.706 0.646-2.329 2.222-2.329l16.008-0.006 3.346-5.26-20.364 0.007z"></path>
<path fill="#718087" style="fill: var(--color1, #718087)" d="M79.435 0.493l-14.468 30.508h6.838l2.818-6.3h15.722l2.809 6.3h6.868l-14.502-30.508h-6.085zM82.47 6.827l5.559 12.68h-11.083l5.524-12.68z"></path>
</symbol>
<symbol id="icon-cisco" viewBox="0 0 59 32">
<path fill="#666" style="fill: var(--color2, #666)" d="M40.31 23.703c-0.671-0.364-1.423-0.553-2.186-0.55-1.68 0-2.845 1.169-2.845 2.746 0 1.53 1.115 2.749 2.845 2.749 0.763 0.002 1.514-0.186 2.186-0.547v2.764c-0.768 0.235-1.565 0.358-2.368 0.366-2.923 0-5.488-2.015-5.488-5.333 0-3.074 2.321-5.329 5.488-5.329 0.803 0.002 1.602 0.127 2.368 0.37v2.764zM13.188 23.703c-0.669-0.365-1.42-0.554-2.183-0.55-1.683 0-2.848 1.169-2.848 2.746 0 1.53 1.116 2.749 2.848 2.749 0.762 0.003 1.512-0.185 2.183-0.547v2.764c-0.768 0.236-1.567 0.359-2.37 0.366-2.92 0-5.482-2.015-5.482-5.333 0-3.074 2.321-5.329 5.483-5.329 0.804 0.001 1.603 0.126 2.37 0.37v2.764zM48.483 23.192c-0.356-0.003-0.708 0.064-1.037 0.2s-0.627 0.335-0.878 0.587-0.448 0.552-0.58 0.882c-0.133 0.33-0.198 0.683-0.191 1.039-0.007 0.356 0.058 0.709 0.191 1.039s0.33 0.631 0.58 0.883c0.25 0.253 0.549 0.453 0.878 0.588s0.682 0.203 1.038 0.2c0.356 0.003 0.709-0.065 1.038-0.2s0.628-0.335 0.878-0.588c0.251-0.253 0.448-0.553 0.581-0.883s0.198-0.683 0.191-1.039c0.006-0.356-0.059-0.709-0.192-1.039s-0.33-0.63-0.581-0.882c-0.251-0.252-0.549-0.452-0.878-0.587s-0.681-0.203-1.037-0.2zM53.924 25.9c0 2.946-2.274 5.332-5.44 5.332s-5.439-2.387-5.439-5.333c0-2.94 2.272-5.329 5.438-5.329s5.441 2.389 5.441 5.33zM29.212 23.093c-0.039-0.012-1.133-0.314-2.031-0.314-1.041 0-1.607 0.349-1.607 0.844 0 0.627 0.764 0.846 1.191 0.981l0.717 0.228c1.687 0.536 2.455 1.691 2.455 2.946 0 2.587-2.275 3.456-4.263 3.456-0.941-0.009-1.88-0.103-2.804-0.281v-2.37c0.229 0.058 1.319 0.384 2.453 0.384 1.293 0 1.887-0.379 1.887-0.961 0-0.522-0.514-0.823-1.159-1.026-0.156-0.053-0.393-0.127-0.555-0.179-1.447-0.458-2.654-1.309-2.654-3.012 0-1.926 1.442-3.219 3.837-3.219 0.854 0.012 1.704 0.121 2.532 0.327v2.198z"></path>
<path fill="#666" style="fill: var(--color2, #666)" d="M19.358 31.050h-2.598v-10.297h2.598v10.297z"></path>
<path fill="#666" style="fill: var(--color2, #666)" d="M2.201 8.778c0.242 0.241 0.378 0.568 0.379 0.909l0 2.703c-0.009 0.336-0.148 0.656-0.389 0.891s-0.564 0.366-0.901 0.366c-0.337 0-0.66-0.131-0.901-0.366s-0.381-0.555-0.389-0.891v-2.704c0.001-0.341 0.138-0.668 0.38-0.909s0.569-0.376 0.911-0.375c0.341-0 0.669 0.135 0.911 0.376z"></path>
<path fill="#666" style="fill: var(--color2, #666)" d="M9.567 5.646c0.065 0.157 0.098 0.324 0.098 0.494v6.25c0 0.342-0.136 0.67-0.378 0.912s-0.57 0.378-0.912 0.378-0.67-0.136-0.912-0.378c-0.242-0.242-0.378-0.57-0.378-0.912v-6.25c0-0.169 0.033-0.337 0.098-0.494s0.16-0.299 0.28-0.418c0.12-0.12 0.262-0.215 0.419-0.28s0.324-0.098 0.494-0.098c0.169 0 0.337 0.033 0.494 0.098s0.299 0.16 0.419 0.28c0.12 0.12 0.215 0.262 0.28 0.418z"></path>
<path fill="#666" style="fill: var(--color2, #666)" d="M16.373 0.377c0.242 0.241 0.378 0.568 0.379 0.909v13.673c-0.009 0.336-0.148 0.656-0.389 0.891s-0.564 0.366-0.901 0.366-0.66-0.131-0.901-0.366c-0.241-0.235-0.381-0.555-0.389-0.891v-13.673c0.001-0.341 0.137-0.669 0.38-0.91s0.569-0.376 0.911-0.376c0.341-0 0.669 0.135 0.911 0.376z"></path>
<path fill="#666" style="fill: var(--color2, #666)" d="M23.74 5.646c0.065 0.157 0.098 0.324 0.098 0.494l0-0.002v6.251c0 0.342-0.136 0.67-0.378 0.912s-0.57 0.378-0.912 0.378-0.67-0.136-0.912-0.378c-0.242-0.242-0.378-0.57-0.378-0.912v-6.25c0-0.169 0.033-0.337 0.098-0.494s0.16-0.299 0.28-0.419c0.12-0.12 0.262-0.215 0.419-0.28s0.324-0.098 0.494-0.098c0.169 0 0.337 0.034 0.494 0.098s0.299 0.16 0.419 0.28c0.12 0.12 0.215 0.262 0.279 0.419z"></path>
<path fill="#666" style="fill: var(--color2, #666)" d="M30.54 8.779c0.24 0.241 0.375 0.567 0.375 0.908v2.703c0 0.341-0.135 0.668-0.377 0.909s-0.568 0.377-0.909 0.377-0.668-0.136-0.909-0.377c-0.241-0.241-0.377-0.568-0.377-0.909v-2.704c0.001-0.341 0.138-0.668 0.38-0.908s0.569-0.376 0.91-0.375c0.34 0 0.667 0.136 0.907 0.377z"></path>
<path fill="#666" style="fill: var(--color2, #666)" d="M37.616 5.252c0.24 0.234 0.379 0.553 0.388 0.888v6.25c0 0.169-0.033 0.336-0.098 0.492s-0.159 0.298-0.279 0.417c-0.119 0.119-0.261 0.214-0.417 0.279s-0.323 0.098-0.492 0.098c-0.341-0-0.668-0.136-0.909-0.377s-0.377-0.568-0.377-0.909v-6.25c0.009-0.335 0.148-0.654 0.388-0.888s0.563-0.365 0.898-0.365c0.336 0 0.658 0.131 0.898 0.365z"></path>
<path fill="#666" style="fill: var(--color2, #666)" d="M44.718 0.377c0.241 0.241 0.377 0.568 0.377 0.909v13.673c0.010 0.232-0.043 0.463-0.153 0.667s-0.274 0.375-0.473 0.494c-0.199 0.119-0.428 0.182-0.66 0.182s-0.46-0.063-0.66-0.182-0.363-0.29-0.473-0.494c-0.11-0.204-0.163-0.435-0.153-0.667v-13.673c0-0.341 0.135-0.668 0.377-0.909s0.568-0.377 0.909-0.377 0.668 0.136 0.909 0.377z"></path>
<path fill="#666" style="fill: var(--color2, #666)" d="M52.083 5.645c0.066 0.157 0.1 0.325 0.1 0.496v6.25c-0 0.17-0.034 0.339-0.1 0.496s-0.162 0.3-0.283 0.42c-0.121 0.12-0.265 0.214-0.423 0.279s-0.327 0.096-0.497 0.094c-0.169-0-0.336-0.034-0.493-0.098s-0.298-0.16-0.417-0.279c-0.119-0.12-0.214-0.262-0.279-0.418s-0.098-0.324-0.097-0.493v-6.251c0-0.341 0.135-0.668 0.376-0.909s0.568-0.377 0.909-0.377c0.17-0.002 0.339 0.031 0.497 0.095s0.301 0.158 0.422 0.278c0.121 0.12 0.217 0.262 0.283 0.419z"></path>
<path fill="#666" style="fill: var(--color2, #666)" d="M58.882 8.777c0.241 0.241 0.377 0.569 0.377 0.91l-0.001 2.703c0 0.169-0.033 0.337-0.097 0.493s-0.159 0.299-0.279 0.418c-0.119 0.12-0.261 0.215-0.418 0.28s-0.324 0.098-0.493 0.099c-0.169-0-0.337-0.034-0.493-0.098s-0.298-0.16-0.418-0.28c-0.119-0.12-0.214-0.262-0.279-0.418s-0.098-0.324-0.097-0.493v-2.703c0-0.341 0.136-0.669 0.377-0.91s0.569-0.377 0.91-0.377c0.341 0 0.669 0.136 0.91 0.377z"></path>
<path fill="#666" style="fill: var(--color2, #666)" d="M57.772 29.854h-0.459z"></path>
<path fill="#666" style="fill: var(--color2, #666)" d="M57.312 29.854v1.194z"></path>
<path fill="#666" style="fill: var(--color2, #666)" d="M57.312 31.049h-0.189z"></path>
<path fill="#666" style="fill: var(--color2, #666)" d="M57.123 31.049v-1.193z"></path>
<path fill="#666" style="fill: var(--color2, #666)" d="M57.123 29.855h-0.461z"></path>
<path fill="#666" style="fill: var(--color2, #666)" d="M56.662 29.855v-0.162z"></path>
<path fill="#666" style="fill: var(--color2, #666)" d="M56.662 29.693l1.109-0z"></path>
<path fill="#666" style="fill: var(--color2, #666)" d="M58.163 29.693l0.406 1.112z"></path>
<path fill="#666" style="fill: var(--color2, #666)" d="M58.569 30.805h0.007z"></path>
<path fill="#666" style="fill: var(--color2, #666)" d="M58.576 30.805l0.393-1.111z"></path>
<path fill="#666" style="fill: var(--color2, #666)" d="M58.968 29.694h0.29z"></path>
<path fill="#666" style="fill: var(--color2, #666)" d="M59.258 29.694v1.355z"></path>
<path fill="#666" style="fill: var(--color2, #666)" d="M59.258 31.049h-0.193z"></path>
<path fill="#666" style="fill: var(--color2, #666)" d="M59.065 31.049v-1.111z"></path>
<path fill="#666" style="fill: var(--color2, #666)" d="M59.065 29.938h-0.007z"></path>
<path fill="#666" style="fill: var(--color2, #666)" d="M59.058 29.938l-0.411 1.111z"></path>
<path fill="#666" style="fill: var(--color2, #666)" d="M58.647 31.049h-0.178z"></path>
<path fill="#666" style="fill: var(--color2, #666)" d="M58.468 31.049l-0.402-1.111z"></path>
<path fill="#666" style="fill: var(--color2, #666)" d="M58.066 29.938h-0.009z"></path>
<path fill="#666" style="fill: var(--color2, #666)" d="M58.057 29.938v1.111z"></path>
<path fill="#666" style="fill: var(--color2, #666)" d="M58.057 31.049h-0.189z"></path>
<path fill="#666" style="fill: var(--color2, #666)" d="M57.868 31.049l0-1.356z"></path>
<path fill="#666" style="fill: var(--color2, #666)" d="M58.163 29.693l0.406 1.112h0.007l0.393-1.111h0.29v1.355h-0.193v-1.111h-0.007l-0.411 1.111h-0.178l-0.402-1.111h-0.009v1.111h-0.189l0-1.356h0.295z"></path>
<path fill="#666" style="fill: var(--color2, #666)" d="M57.772 29.854h-0.459v1.194h-0.189v-1.193h-0.461v-0.162l1.109-0v0.161z"></path>
</symbol>
<symbol id="icon-ebay" viewBox="0 0 81 32">
<path fill="#666" style="fill: var(--color2, #666)" d="M24.335 9.632c0 0 2.218-2.923 7.368-2.896 5.152 0.027 9.928 3.475 9.817 9.408-0.011 0.548-0.058 1.071-0.138 1.571 1.378-3.71 8.184-4.216 10.217-4.229 1.196 0 4.783-0.013 4.783-0.013 0.019-2.409-0.744-4.021-4.921-4.093-3.561-0.066-4.475 1.711-4.691 2.409h-4.362c1.112-5.723 9.336-5.026 9.336-5.026 8.567 0.336 8.777 4.741 8.876 6.816l0.011 0.222v11.461l-3.796 0.020-0.17-3.085c-1.619 1.954-3.796 3.045-7.619 3.066-3.722 0.019-8.449-1.526-7.907-6.434-1.18 4.197-4.947 6.434-9.521 6.434-5.465 0-7.335-2.92-7.335-2.92l-0.172 2.92h-3.901v-8.421h-16.099c0 0 0.231 5.724 6.112 5.834 4.573 0.081 5.401-2.998 5.401-2.998l4.224-0.014c0 0-0.448 5.599-9.644 5.599-10.698 0-10.198-8.921-10.198-8.921-0.052-1.981-0.013-9.605 10.099-9.605 8.462 0 9.905 5.777 10.105 8.595v-15.332h4.125v9.632zM24.362 16.072c0 0-0.106 6.626 6.402 6.547 6.499-0.080 6.513-6.409 6.513-6.409s0.098-6.986-6.526-6.822c-6.624 0.164-6.388 6.684-6.388 6.684zM10.354 9.349c-5.816 0-6.105 4.994-6.105 4.994h11.896c0 0 0-5.001-5.79-4.994zM45.381 19.613c0.244 3.151 4.382 3.144 4.382 3.144 7.414 0.091 6.658-6.65 6.663-6.65l-4.682 0.005c0 0-6.619 0.138-6.363 3.502z"></path>
<path fill="#666" style="fill: var(--color2, #666)" d="M58.001 6.737h4.722l6.916 13.784 6.934-13.784h4.269l-12.507 25.263h-4.571l3.62-7.52-9.383-17.744z"></path>
</symbol>
<symbol id="icon-facebook" viewBox="0 0 32 32">
<path d="M19 6h5v-6h-5c-3.86 0-7 3.14-7 7v3h-4v6h4v16h6v-16h5l1-6h-6v-3c0-0.542 0.458-1 1-1z"></path>
</symbol>
<symbol id="icon-gucc" viewBox="0 0 129 32">
<path fill="#718087" style="fill: var(--color1, #718087)" opacity="0.8" d="M29.313 21.608v6.611c-2.403 2.113-8.146 3.371-12.422 3.371-4.27 0-16.090-2.645-16.090-15.070s11.25-15.103 15.789-15.103c4.544 0 9.383 0.824 12.186 2.677v5.815c0 0.726-1.002 0.661-1.002 0-0.066-0.992-2.737-6.936-9.416-6.806-7.21 0.146-12.082 5.755-12.082 13.152s4.735 13.748 11.885 13.548c2.321-0.065 4.741-0.791 5.912-1.756l0.027-6.438c0-1.848-1.133-2.509-2.267-2.509-0.739 0-0.739-1.057 0-1.057h9.745c0.734 0 0.734 1.122 0 1.057-1.128 0-2.266 0.661-2.266 2.509zM95.012 9.914c0 0.726-0.733 0.661-0.733 0-0.071-0.992-2.737-7.137-9.416-7.001-7.21 0.141-12.088 5.95-12.088 13.347s4.675 13.943 11.819 13.748c7.144-0.201 10.549-7.202 10.818-8.129s0.734-0.791 0.734-0.065v5.419c-2.934 2.113-8.48 4.362-12.75 4.362s-16.090-2.645-16.090-15.071c0-12.431 11.217-15.401 15.756-15.401 4.544 0 9.148 1.122 11.956 2.97v5.82h-0.006zM64.766 1.85c1.067 0 1.067 0.992 0 0.992-1.133 0-2.267 0.661-2.267 2.509l-0.131 14.442c0 6.915-5.666 11.998-12.657 11.998s-12.449-5.083-12.449-11.998v-14.442c0-1.853-1.139-2.509-2.272-2.509-1.068 0-1.068-0.992 0-0.992h9.881c1.068 0 1.068 0.992 0 0.992-1.139 0-2.272 0.661-2.272 2.509l-0.011 16.127c0 4.877 4.029 8.833 8.956 8.833s8.923-4.948 8.923-9.819l-0.241-15.141c0-1.853-1.133-2.509-2.272-2.509-1.062 0-1.062-0.992 0-0.992h6.81zM127.663 9.914c0 0.726-0.734 0.661-0.734 0-0.066-0.992-2.737-7.137-9.416-7.001-7.21 0.141-12.088 5.95-12.088 13.347s4.675 13.943 11.819 13.748c7.144-0.195 10.549-7.202 10.818-8.129s0.739-0.791 0.739-0.065v5.419c-2.94 2.113-8.48 4.362-12.756 4.362-4.27 0-16.090-2.645-16.090-15.071 0-12.431 11.217-15.401 15.761-15.401 4.538 0 9.148 1.122 11.951 2.97v5.82h-0.005z"></path>
</symbol>
<symbol id="icon-instagram" viewBox="0 0 32 32">
<path d="M16 2.881c4.275 0 4.781 0.019 6.462 0.094 1.563 0.069 2.406 0.331 2.969 0.55 0.744 0.288 1.281 0.638 1.837 1.194 0.563 0.563 0.906 1.094 1.2 1.838 0.219 0.563 0.481 1.412 0.55 2.969 0.075 1.688 0.094 2.194 0.094 6.463s-0.019 4.781-0.094 6.463c-0.069 1.563-0.331 2.406-0.55 2.969-0.288 0.744-0.637 1.281-1.194 1.837-0.563 0.563-1.094 0.906-1.837 1.2-0.563 0.219-1.413 0.481-2.969 0.55-1.688 0.075-2.194 0.094-6.463 0.094s-4.781-0.019-6.463-0.094c-1.563-0.069-2.406-0.331-2.969-0.55-0.744-0.288-1.281-0.637-1.838-1.194-0.563-0.563-0.906-1.094-1.2-1.837-0.219-0.563-0.481-1.413-0.55-2.969-0.075-1.688-0.094-2.194-0.094-6.463s0.019-4.781 0.094-6.463c0.069-1.563 0.331-2.406 0.55-2.969 0.288-0.744 0.638-1.281 1.194-1.838 0.563-0.563 1.094-0.906 1.838-1.2 0.563-0.219 1.412-0.481 2.969-0.55 1.681-0.075 2.188-0.094 6.463-0.094zM16 0c-4.344 0-4.887 0.019-6.594 0.094-1.7 0.075-2.869 0.35-3.881 0.744-1.056 0.412-1.95 0.956-2.837 1.85-0.894 0.888-1.438 1.781-1.85 2.831-0.394 1.019-0.669 2.181-0.744 3.881-0.075 1.713-0.094 2.256-0.094 6.6s0.019 4.887 0.094 6.594c0.075 1.7 0.35 2.869 0.744 3.881 0.413 1.056 0.956 1.95 1.85 2.837 0.887 0.887 1.781 1.438 2.831 1.844 1.019 0.394 2.181 0.669 3.881 0.744 1.706 0.075 2.25 0.094 6.594 0.094s4.888-0.019 6.594-0.094c1.7-0.075 2.869-0.35 3.881-0.744 1.050-0.406 1.944-0.956 2.831-1.844s1.438-1.781 1.844-2.831c0.394-1.019 0.669-2.181 0.744-3.881 0.075-1.706 0.094-2.25 0.094-6.594s-0.019-4.887-0.094-6.594c-0.075-1.7-0.35-2.869-0.744-3.881-0.394-1.063-0.938-1.956-1.831-2.844-0.887-0.887-1.781-1.438-2.831-1.844-1.019-0.394-2.181-0.669-3.881-0.744-1.712-0.081-2.256-0.1-6.6-0.1v0z"></path>
<path d="M16 7.781c-4.537 0-8.219 3.681-8.219 8.219s3.681 8.219 8.219 8.219 8.219-3.681 8.219-8.219c0-4.537-3.681-8.219-8.219-8.219zM16 21.331c-2.944 0-5.331-2.387-5.331-5.331s2.387-5.331 5.331-5.331c2.944 0 5.331 2.387 5.331 5.331s-2.387 5.331-5.331 5.331z"></path>
<path d="M26.462 7.456c0 1.060-0.859 1.919-1.919 1.919s-1.919-0.859-1.919-1.919c0-1.060 0.859-1.919 1.919-1.919s1.919 0.859 1.919 1.919z"></path>
</symbol>
<symbol id="icon-linkedin" viewBox="0 0 32 32">
<path d="M29 0h-26c-1.65 0-3 1.35-3 3v26c0 1.65 1.35 3 3 3h26c1.65 0 3-1.35 3-3v-26c0-1.65-1.35-3-3-3zM12 26h-4v-14h4v14zM10 10c-1.106 0-2-0.894-2-2s0.894-2 2-2c1.106 0 2 0.894 2 2s-0.894 2-2 2zM26 26h-4v-8c0-1.106-0.894-2-2-2s-2 0.894-2 2v8h-4v-14h4v2.481c0.825-1.131 2.087-2.481 3.5-2.481 2.488 0 4.5 2.238 4.5 5v9z"></path>
</symbol>
<symbol id="icon-microsoft" viewBox="0 0 145 32">
<path fill="#718087" style="fill: var(--color1, #718087)" d="M144.153 14.303v-2.524h-3.134v-3.924l-0.105 0.033-3.001 0.918v2.973h-4.647v-1.657c-0.045-0.627 0.137-1.25 0.512-1.755 0.181-0.198 0.403-0.354 0.652-0.455s0.516-0.146 0.784-0.131c0.471 0.006 0.935 0.112 1.362 0.31l0.115 0.052v-2.656l-0.054-0.020c-0.564-0.174-1.152-0.252-1.741-0.232-0.86-0.014-1.709 0.19-2.469 0.593-0.714 0.384-1.302 0.966-1.694 1.675-0.407 0.754-0.614 1.6-0.6 2.457v1.82h-2.182v2.524h2.182v10.632h3.133v-10.632h4.647v6.754c0 2.785 1.312 4.193 3.902 4.193 0.447-0.003 0.893-0.052 1.33-0.147 0.336-0.057 0.661-0.16 0.969-0.307l0.041-0.025v-2.547l-0.128 0.084c-0.194 0.123-0.407 0.215-0.63 0.272-0.201 0.062-0.409 0.097-0.619 0.105-0.244 0.021-0.49-0.011-0.721-0.095s-0.439-0.217-0.613-0.391c-0.33-0.497-0.48-1.092-0.425-1.686v-6.211h3.134zM120.953 22.687c-0.5 0.026-0.999-0.061-1.461-0.255s-0.873-0.49-1.205-0.865c-0.687-0.906-1.027-2.028-0.958-3.163-0.073-1.161 0.266-2.311 0.958-3.247 0.324-0.378 0.731-0.677 1.188-0.874s0.954-0.287 1.451-0.263c0.482-0.023 0.964 0.062 1.409 0.251s0.842 0.474 1.161 0.836c0.686 0.927 1.019 2.069 0.939 3.22 0.079 1.155-0.232 2.303-0.883 3.26-0.318 0.373-0.718 0.667-1.17 0.858s-0.941 0.274-1.43 0.242zM121.092 11.457c-0.937-0.052-1.875 0.090-2.756 0.415s-1.686 0.827-2.365 1.475c-0.635 0.694-1.126 1.507-1.444 2.393s-0.456 1.825-0.406 2.765c-0.045 0.9 0.092 1.8 0.402 2.646s0.788 1.621 1.404 2.278c0.642 0.617 1.403 1.096 2.237 1.409s1.722 0.452 2.611 0.41c0.924 0.045 1.847-0.102 2.711-0.431s1.65-0.835 2.309-1.484c0.63-0.687 1.118-1.492 1.436-2.368s0.459-1.807 0.415-2.738c0.099-1.817-0.525-3.599-1.735-4.958-0.634-0.619-1.39-1.099-2.219-1.41s-1.714-0.447-2.598-0.398v-0.002zM109.070 11.459c-1.303-0.055-2.585 0.341-3.629 1.121-0.449 0.341-0.811 0.783-1.057 1.291s-0.368 1.066-0.357 1.63c-0.011 0.558 0.093 1.113 0.305 1.63 0.211 0.476 0.531 0.895 0.936 1.223 0.583 0.439 1.223 0.797 1.902 1.065 0.543 0.213 1.072 0.46 1.584 0.738 0.27 0.141 0.507 0.336 0.697 0.573 0.14 0.223 0.207 0.484 0.194 0.747 0 0.883-0.662 1.314-2.024 1.314-0.584-0.014-1.161-0.12-1.712-0.313-0.627-0.205-1.218-0.505-1.754-0.889l-0.13-0.093v3.016l0.048 0.022c0.533 0.233 1.090 0.405 1.661 0.513 0.583 0.127 1.177 0.195 1.773 0.204 1.368 0.071 2.72-0.327 3.832-1.128 0.457-0.35 0.824-0.804 1.072-1.323s0.37-1.090 0.355-1.666c0.022-0.821-0.25-1.623-0.768-2.26-0.725-0.753-1.619-1.322-2.608-1.661-0.666-0.223-1.293-0.549-1.858-0.966-0.129-0.134-0.229-0.293-0.293-0.468s-0.092-0.36-0.082-0.546c-0.003-0.183 0.039-0.364 0.122-0.527s0.204-0.304 0.354-0.41c0.39-0.27 0.859-0.402 1.333-0.376 0.538 0.003 1.073 0.085 1.587 0.244 0.492 0.143 0.959 0.36 1.386 0.643l0.128 0.088v-2.858l-0.049-0.021c-0.454-0.181-0.926-0.312-1.407-0.393-0.508-0.1-1.025-0.153-1.543-0.16l0.004-0.003zM95.86 22.687c-0.5 0.026-0.999-0.061-1.461-0.255s-0.873-0.49-1.205-0.865c-0.686-0.905-1.026-2.025-0.957-3.159-0.073-1.161 0.266-2.311 0.958-3.247 0.324-0.378 0.731-0.677 1.188-0.875s0.954-0.287 1.452-0.263c0.482-0.023 0.964 0.062 1.409 0.251s0.842 0.474 1.161 0.836c0.686 0.927 1.019 2.069 0.939 3.22 0.079 1.155-0.232 2.303-0.883 3.26-0.318 0.373-0.718 0.667-1.17 0.858s-0.941 0.273-1.43 0.241l-0.001-0.002zM96.001 11.46c-0.937-0.052-1.875 0.089-2.756 0.414s-1.686 0.827-2.365 1.475c-0.635 0.694-1.126 1.507-1.444 2.393s-0.456 1.825-0.407 2.765c-0.045 0.9 0.092 1.8 0.402 2.646s0.788 1.621 1.405 2.278c0.642 0.617 1.403 1.096 2.237 1.409s1.722 0.452 2.611 0.41c0.924 0.045 1.847-0.102 2.711-0.431s1.65-0.835 2.309-1.484c0.63-0.687 1.118-1.492 1.436-2.368s0.459-1.807 0.415-2.738c0.099-1.817-0.526-3.6-1.736-4.959-0.634-0.618-1.389-1.098-2.218-1.41s-1.714-0.447-2.598-0.398v-0.002zM84.274 14.057v-2.279h-3.095v13.156h3.095v-6.73c-0.044-0.99 0.226-1.968 0.772-2.794 0.219-0.33 0.517-0.599 0.867-0.784s0.741-0.279 1.136-0.273c0.315 0.005 0.627 0.050 0.93 0.136 0.255 0.057 0.499 0.155 0.721 0.292l0.13 0.094v-3.119l-0.050-0.022c-0.388-0.139-0.8-0.201-1.212-0.184-0.756-0.007-1.49 0.256-2.070 0.742-0.542 0.476-0.953 1.085-1.191 1.766l-0.035-0.001zM75.637 11.461c-1.311-0.026-2.607 0.285-3.763 0.905-1.063 0.585-1.927 1.474-2.482 2.553-0.585 1.173-0.877 2.47-0.852 3.781-0.015 1.182 0.27 2.348 0.829 3.389 0.53 0.987 1.334 1.8 2.315 2.341 1.039 0.559 2.204 0.842 3.383 0.823 1.3 0.042 2.589-0.26 3.736-0.874l0.041-0.023v-2.836l-0.13 0.095c-0.463 0.336-0.973 0.602-1.514 0.789-0.475 0.177-0.976 0.274-1.483 0.287-0.535 0.026-1.070-0.061-1.569-0.256s-0.952-0.492-1.328-0.873c-0.75-0.864-1.133-1.986-1.068-3.129-0.057-1.174 0.342-2.325 1.114-3.211 0.37-0.396 0.821-0.707 1.321-0.914s1.040-0.304 1.581-0.284c1.067 0.017 2.099 0.376 2.946 1.025l0.13 0.094v-2.989l-0.042-0.024c-0.451-0.232-0.933-0.395-1.432-0.484-0.569-0.12-1.149-0.183-1.73-0.185l-0.002 0.001zM66.41 11.778h-3.095v13.157h3.095v-13.157zM64.894 6.173c-0.49-0.008-0.964 0.178-1.318 0.517-0.178 0.164-0.32 0.363-0.415 0.586s-0.142 0.463-0.137 0.705c-0.005 0.238 0.040 0.473 0.134 0.692s0.233 0.414 0.409 0.574c0.359 0.334 0.834 0.515 1.325 0.504 0.492 0.010 0.968-0.171 1.33-0.503 0.178-0.159 0.32-0.354 0.416-0.572s0.143-0.455 0.138-0.694c0.003-0.238-0.044-0.475-0.137-0.694s-0.23-0.418-0.402-0.582c-0.177-0.175-0.387-0.312-0.618-0.403s-0.478-0.135-0.727-0.128h0.003zM57.17 10.807v14.128h3.158v-18.358h-4.371l-5.556 13.636-5.392-13.636h-4.551v18.357h2.968v-14.128h0.102l5.693 14.128h2.242l5.605-14.128 0.101 0.001z"></path>
<path fill="#718087" style="fill: var(--color1, #718087)" d="M15.202 15h-14.558v-14.558h14.558v14.558z"></path>
<path fill="#718087" style="fill: var(--color1, #718087)" d="M31.276 15h-14.558v-14.558h14.558v14.558z"></path>
<path fill="#718087" style="fill: var(--color1, #718087)" d="M15.202 31.079h-14.558v-14.558h14.558v14.558z"></path>
<path fill="#718087" style="fill: var(--color1, #718087)" d="M31.276 31.079h-14.558v-14.558h14.558v14.558z"></path>
</symbol>
<symbol id="icon-twitter" viewBox="0 0 32 32">
<path d="M32 7.075c-1.175 0.525-2.444 0.875-3.769 1.031 1.356-0.813 2.394-2.1 2.887-3.631-1.269 0.75-2.675 1.3-4.169 1.594-1.2-1.275-2.906-2.069-4.794-2.069-3.625 0-6.563 2.938-6.563 6.563 0 0.512 0.056 1.012 0.169 1.494-5.456-0.275-10.294-2.888-13.531-6.862-0.563 0.969-0.887 2.1-0.887 3.3 0 2.275 1.156 4.287 2.919 5.463-1.075-0.031-2.087-0.331-2.975-0.819 0 0.025 0 0.056 0 0.081 0 3.181 2.263 5.838 5.269 6.437-0.55 0.15-1.131 0.231-1.731 0.231-0.425 0-0.831-0.044-1.237-0.119 0.838 2.606 3.263 4.506 6.131 4.563-2.25 1.762-5.075 2.813-8.156 2.813-0.531 0-1.050-0.031-1.569-0.094 2.913 1.869 6.362 2.95 10.069 2.95 12.075 0 18.681-10.006 18.681-18.681 0-0.287-0.006-0.569-0.019-0.85 1.281-0.919 2.394-2.075 3.275-3.394z"></path>
</symbol>
<symbol id="icon-uber" viewBox="0 0 143 32">
<path fill="#718087" style="fill: var(--color1, #718087)" d="M24.049 0.646h5.429v17.604c0 9.262-5.789 12.513-14.189 12.513-8.369 0-14.159-3.251-14.159-12.513v-16.899c0-0.491 0.24-0.705 0.72-0.705h5.429v17.328c0 5.551 2.4 7.851 8.009 7.851 5.64 0 8.039-2.3 8.039-7.851v-16.623c0-0.491 0.24-0.705 0.72-0.705zM85.513 5.461v7.422h13.739c0.24 0 0.33 0.123 0.24 0.368l-1.5 3.803c-0.15 0.337-0.36 0.491-0.81 0.491h-8.069c-2.64 0-3.6 0.828-3.6 2.638v5.245h18.598c0.24 0 0.33 0.123 0.24 0.368l-1.56 3.956c-0.15 0.337-0.36 0.491-0.81 0.491h-20.368c-1.56 0-2.16-0.552-2.16-1.748v-25.793c0-1.441 0.78-2.055 2.82-2.055h21.838c0.24 0 0.33 0.123 0.24 0.337l-1.56 3.987c-0.15 0.337-0.36 0.491-0.81 0.491h-16.469zM68.265 22.053c0 5.919-4.080 8.189-9.809 8.189h-15.179c-1.59 0-2.16-0.552-2.16-1.748v-25.793c0-1.441 0.75-2.055 2.82-2.055h12.329c5.4 0 10.619 0.951 10.619 7.514 0 2.822-0.99 5.214-3.36 6.471 3.27 0.889 4.74 3.895 4.74 7.422zM47.087 12.975h9.629c3.18 0 4.080-1.257 4.080-3.834s-0.9-3.803-4.080-3.803h-9.629v7.637zM62.175 21.501c0-2.729-0.93-4.079-4.35-4.079h-7.109c-2.64 0-3.63 0.828-3.63 2.638v5.49h10.739c3.42 0 4.35-1.349 4.35-4.049zM141.967 30.242h-5.52c-0.45 0-0.63-0.184-0.81-0.491l-5.849-10.796h-5.37c-2.64 0-3.63 0.828-3.63 2.638v8.649h-5.279c-0.48 0-0.72-0.245-0.72-0.705v-26.836c0-1.441 0.78-2.055 2.82-2.055h12.389c7.229 0 11.579 1.932 11.579 9.109 0 5.551-2.61 7.729-5.849 8.588l6.509 11.378c0.12 0.184 0.12 0.521-0.27 0.521zM135.488 9.877c0-3.006-0.81-4.478-4.59-4.478h-10.109v8.956h10.109c3.78 0 4.59-1.441 4.59-4.478z"></path>
</symbol>
</defs>
</svg>
